<svg xmlns="http://www.w3.org/2000/svg" viewBox="0 0 64 64">
  <defs>
    <linearGradient id="g" x1="0%" y1="0%" x2="100%" y2="100%">
      <stop offset="0%" stop-color="#1d4ed8" />
      <stop offset="100%" stop-color="#38bdf8" />
    </linearGradient>
  </defs>
  <rect width="64" height="64" rx="18" fill="#0f172a" />
  <path d="M18 18h28c3.3 0 6 2.7 6 6v22c0 3.3-2.7 6-6 6H18c-3.3 0-6-2.7-6-6V24c0-3.3 2.7-6 6-6Z" fill="url(#g)" opacity=".94" />
  <path d="M22 25h20c1.7 0 3 1.3 3 3v12c0 1.7-1.3 3-3 3H22c-1.7 0-3-1.3-3-3V28c0-1.7 1.3-3 3-3Z" fill="#eff6ff" />
  <path d="M25 31h14M25 36h10" stroke="#1e3a8a" stroke-width="3" stroke-linecap="round" />
  <path d="M41 17v8M47 21h-8" stroke="#7dd3fc" stroke-width="3" stroke-linecap="round" />
  <circle cx="46" cy="46" r="6" fill="#f8fafc" />
  <path d="m43.8 46 1.5 1.5 3.1-3.2" fill="none" stroke="#1d4ed8" stroke-width="2.5" stroke-linecap="round" stroke-linejoin="round" />
</svg>
